<svg xmlns="http://www.w3.org/2000/svg" viewBox="0 0 100 100" width="100" height="100">
  <defs>
    <linearGradient id="brainGrad" x1="0%" y1="0%" x2="100%" y2="100%">
      <stop offset="0%" style="stop-color:#BF124D;stop-opacity:1" />
      <stop offset="100%" style="stop-color:#E49BA6;stop-opacity:1" />
    </linearGradient>
  </defs>
  <!-- Brain shape -->
  <path d="M50 10 C30 15, 20 30, 20 50 C20 65, 25 75, 35 80 C35 85, 40 90, 50 90 C60 90, 65 85, 65 80 C75 75, 80 65, 80 50 C80 30, 70 15, 50 10 Z" 
        fill="url(#brainGrad)" 
        stroke="#BF124D" 
        stroke-width="2"/>
  <!-- Brain wrinkles -->
  <path d="M30 35 Q35 40, 40 35 Q45 40, 50 35 Q55 40, 60 35 Q65 40, 70 35" 
        stroke="#FFFFFF" 
        stroke-width="1.5" 
        fill="none" 
        opacity="0.6"/>
  <path d="M35 50 Q42 55, 50 50 Q58 55, 65 50" 
        stroke="#FFFFFF" 
        stroke-width="2" 
        fill="none" 
        opacity="0.7"/>
  <path d="M30 65 Q35 70, 40 65 Q45 70, 50 65 Q55 70, 60 65 Q65 70, 70 65" 
        stroke="#FFFFFF" 
        stroke-width="1.5" 
        fill="none" 
        opacity="0.6"/>
  <!-- Eyes -->
  <circle cx="42" cy="42" r="4" fill="#FFFFFF"/>
  <circle cx="58" cy="42" r="4" fill="#FFFFFF"/>
  <!-- Pupils -->
  <circle cx="42" cy="42" r="2" fill="#BF124D"/>
  <circle cx="58" cy="42" r="2" fill="#BF124D"/>
</svg>
